<svg width="11" height="10" viewBox="0 0 11 10" fill="none" xmlns="http://www.w3.org/2000/svg">
<path d="M10.8009 4.00433C10.7792 4.09091 10.7359 4.15584 10.6926 4.19913L8.35498 6.40693L8.8961 9.50216C8.91775 9.5671 8.8961 9.65368 8.87446 9.71861C8.85281 9.78355 8.80952 9.84848 8.74459 9.89178C8.67965 9.93507 8.61472 9.95671 8.52814 9.97835C8.44156 9.97835 8.37662 9.97836 8.31169 9.93507L5.41126 8.4632L2.51082 9.93507C2.44589 9.97836 2.35931 9.97835 2.29437 9.97835C2.20779 9.97835 2.14286 9.93507 2.07792 9.89178C2.01299 9.84848 1.9697 9.78355 1.94805 9.71861C1.92641 9.65368 1.90476 9.5671 1.92641 9.50216L2.46753 6.40693L0.12987 4.19913C0.0649351 4.1342 0 4.02597 0 3.93939C0 3.83117 0.021645 3.72294 0.0865801 3.65801C0.151515 3.57143 0.25974 3.52814 0.34632 3.50649L3.59307 3.05195L5.04329 0.21645C5.12987 0.0865801 5.25974 0 5.41126 0C5.56277 0 5.69264 0.0865801 5.77922 0.21645L7.22944 3.0303L10.4762 3.48485C10.5628 3.48485 10.6277 3.52814 10.6926 3.57143C10.7576 3.61472 10.8009 3.67965 10.8225 3.76623C10.8225 3.85281 10.8225 3.93939 10.8009 4.00433Z" fill="#E85F5C"/>
</svg>
