<svg width="11" height="10" viewBox="0 0 11 10" fill="none" xmlns="http://www.w3.org/2000/svg">
<path d="M10.8009 3.78788C10.7792 3.72294 10.7359 3.63636 10.671 3.59307C10.6061 3.54978 10.5411 3.50649 10.4545 3.50649L7.20779 3.05195L5.77922 0.21645C5.69264 0.0865801 5.56277 0 5.41126 0C5.25974 0 5.12987 0.0865801 5.04329 0.21645L3.59307 3.0303L0.34632 3.48485C0.238095 3.50649 0.151515 3.54978 0.0865801 3.63636C0.021645 3.72294 0 3.83117 0 3.93939C0 4.04762 0.0649351 4.1342 0.12987 4.22078L2.46753 6.40693L1.90476 9.50216C1.88312 9.58875 1.90476 9.65368 1.92641 9.71861C1.94805 9.78355 2.01299 9.84848 2.05628 9.89178C2.12121 9.93507 2.18615 9.95671 2.27273 9.97835C2.35931 9.97835 2.42424 9.97836 2.48918 9.93507L5.41126 8.4632L8.31169 9.93507C8.37662 9.97836 8.4632 9.97835 8.52814 9.97835C8.61472 9.97835 8.67965 9.93507 8.74459 9.89178C8.80952 9.84848 8.85281 9.78355 8.87446 9.71861C8.8961 9.65368 8.91775 9.5671 8.8961 9.50216L8.35498 6.40693L10.6926 4.22078C10.7576 4.17749 10.8009 4.09091 10.8009 4.02597C10.8009 3.96104 10.8225 3.85281 10.8009 3.78788ZM7.61905 5.95238C7.51082 6.03896 7.46753 6.19048 7.48918 6.32035L7.92208 8.80952L5.58442 7.61905C5.47619 7.55411 5.32468 7.55411 5.21645 7.61905L2.87879 8.80952L3.31169 6.32035C3.33333 6.19048 3.29004 6.03896 3.18182 5.95238L1.32035 4.19913L3.91775 3.83117C4.04762 3.80952 4.17749 3.72294 4.22078 3.61472L5.41126 1.32035L6.58009 3.61472C6.64502 3.74459 6.75325 3.80952 6.88312 3.83117L9.48052 4.19913L7.61905 5.95238Z" fill="#231F20"/>
</svg>
