<svg width="7" height="15" viewBox="0 0 7 15" fill="none" xmlns="http://www.w3.org/2000/svg">
<path fill-rule="evenodd" clip-rule="evenodd" d="M1.55002 7.56024V14.8202C1.55002 14.9102 1.64002 15.0002 1.73002 15.0002H4.43002C4.52002 15.0002 4.61002 14.9102 4.61002 14.8202V7.44024H6.56002C6.65002 7.44024 6.74002 7.35024 6.74002 7.26024L6.92002 5.04024C6.92002 4.92024 6.83002 4.83024 6.74002 4.83024H4.61002V3.24024C4.61002 2.88024 4.91002 2.58024 5.27002 2.58024H6.77002C6.86002 2.58024 6.95002 2.49024 6.95002 2.40024V0.180244C6.98002 0.0902441 6.89002 0.000244141 6.80002 0.000244141H4.25002C2.75002 0.000244141 1.55002 1.20024 1.55002 2.70024V4.83024H0.20002C0.11002 4.83024 0.0200195 4.92024 0.0200195 5.01024V7.23024C0.0200195 7.32024 0.11002 7.41024 0.20002 7.41024H1.55002V7.56024Z" fill="#E85F5C"/>
</svg>
