<svg width="15" height="15" viewBox="0 0 15 15" fill="none" xmlns="http://www.w3.org/2000/svg">
<path d="M12.33 3.48024C12.33 3.96024 11.94 4.35024 11.46 4.35024C10.98 4.35024 10.59 3.96024 10.59 3.48024C10.59 3.00024 10.98 2.61024 11.46 2.61024C11.94 2.61024 12.33 3.00024 12.33 3.48024ZM11.25 7.38024C11.25 9.39024 9.6 11.0402 7.59 11.0402C5.58 11.0402 3.93 9.39024 3.93 7.38024C3.93 5.37024 5.58 3.72024 7.59 3.72024C9.63 3.75024 11.25 5.37024 11.25 7.38024ZM9.93 7.38024C9.93 6.09024 8.88 5.04024 7.59 5.04024C6.3 5.04024 5.25 6.09024 5.25 7.38024C5.25 8.67024 6.3 9.72025 7.59 9.72025C8.88 9.75025 9.93 8.70024 9.93 7.38024ZM15 4.47024C15 2.01024 12.99 0.000244141 10.53 0.000244141H4.47C2.01 0.000244141 0 2.01024 0 4.47024V10.5602C0 12.9902 2.01 15.0002 4.47 15.0002H10.56C12.99 15.0002 15 12.9902 15 10.5302V4.47024ZM13.53 10.4702C13.53 12.1502 12.15 13.5302 10.47 13.5302H4.53C2.85 13.5302 1.47 12.1502 1.47 10.4702V4.53024C1.47 2.85024 2.85 1.47024 4.53 1.47024H10.47C12.15 1.47024 13.53 2.85024 13.53 4.53024V10.4702Z" fill="#E85F5C"/>
</svg>
