<svg width="7" height="15" viewBox="0 0 7 15" fill="none" xmlns="http://www.w3.org/2000/svg">
<path fill-rule="evenodd" clip-rule="evenodd" d="M1.55002 7.56V14.82C1.55002 14.91 1.64002 15 1.73002 15H4.43002C4.52002 15 4.61002 14.91 4.61002 14.82V7.44H6.56002C6.65002 7.44 6.74002 7.35 6.74002 7.26L6.92002 5.04C6.92002 4.92 6.83002 4.83 6.74002 4.83H4.61002V3.24C4.61002 2.88 4.91002 2.58 5.27002 2.58H6.77002C6.86002 2.58 6.95002 2.49 6.95002 2.4V0.18C6.98002 0.09 6.89002 0 6.80002 0H4.25002C2.75002 0 1.55002 1.2 1.55002 2.7V4.83H0.20002C0.11002 4.83 0.0200195 4.92 0.0200195 5.01V7.23C0.0200195 7.32 0.11002 7.41 0.20002 7.41H1.55002V7.56Z" fill="#E85F5C"/>
</svg>
