<svg width="15" height="15" viewBox="0 0 15 15" fill="none" xmlns="http://www.w3.org/2000/svg">
<path d="M12.33 3.48C12.33 3.96 11.94 4.35 11.46 4.35C10.98 4.35 10.59 3.96 10.59 3.48C10.59 3 10.98 2.61 11.46 2.61C11.94 2.61 12.33 3 12.33 3.48ZM11.25 7.38C11.25 9.39 9.6 11.04 7.59 11.04C5.58 11.04 3.93 9.39 3.93 7.38C3.93 5.37 5.58 3.72 7.59 3.72C9.63 3.75 11.25 5.37 11.25 7.38ZM9.93 7.38C9.93 6.09 8.88 5.04 7.59 5.04C6.3 5.04 5.25 6.09 5.25 7.38C5.25 8.67 6.3 9.72 7.59 9.72C8.88 9.75 9.93 8.7 9.93 7.38ZM15 4.47C15 2.01 12.99 0 10.53 0H4.47C2.01 0 0 2.01 0 4.47V10.56C0 12.99 2.01 15 4.47 15H10.56C12.99 15 15 12.99 15 10.53V4.47ZM13.53 10.47C13.53 12.15 12.15 13.53 10.47 13.53H4.53C2.85 13.53 1.47 12.15 1.47 10.47V4.53C1.47 2.85 2.85 1.47 4.53 1.47H10.47C12.15 1.47 13.53 2.85 13.53 4.53V10.47Z" fill="#E85F5C"/>
</svg>
