<svg width="51" height="56" viewBox="0 0 51 56" fill="none" xmlns="http://www.w3.org/2000/svg">
<path d="M7.69091 51.0788H20.9838L33.4848 55.6041C33.598 55.6606 33.7677 55.6606 33.8808 55.6606C34.0505 55.6606 34.2202 55.6041 34.3333 55.5475C34.6162 55.4344 34.7859 55.2081 34.899 54.9253L36.3131 51.0788H42.4222C43.0444 51.0788 43.5535 50.5697 43.5535 49.9475V31.2243L49.9455 13.6323C50.1717 13.0667 49.8323 12.4445 49.2667 12.2182L43.4404 10.1818V6.05255C43.4404 5.43033 42.9313 4.92124 42.3091 4.92124H29.0162L16.5152 0.395984C16.2323 0.282853 15.9495 0.282853 15.6667 0.45255C15.3838 0.565681 15.2141 0.791944 15.101 1.07477L13.6869 4.92124H7.63434C7.01212 4.92124 6.50303 5.43033 6.50303 6.05255V24.7758L0.167674 42.3677C-0.0585884 42.9334 0.280806 43.5556 0.846462 43.7818L6.55959 45.8182V49.9475C6.55959 50.5697 7.06868 51.0788 7.69091 51.0788ZM33.1455 53.1152L27.4323 51.0222H33.8808L33.1455 53.1152ZM47.3434 13.9152L43.4404 24.7192V12.501L47.3434 13.9152ZM16.8545 2.88487L22.5677 4.9778H16.1192L16.8545 2.88487ZM8.76565 7.18386H14.5919H28.8465H41.1778V11.0303V31.1111V48.8727H8.76565V7.18386ZM2.65656 42.0849L6.55959 31.2808V43.5556L2.65656 42.0849Z" fill="#E85F5C"/>
<path d="M24.2081 24.2102C24.4344 24.4364 24.7172 24.5496 25 24.5496C25.2828 24.5496 25.5657 24.4364 25.7919 24.2102L31.0525 18.9496C31.9576 18.0445 32.4667 16.8001 32.4667 15.5556C32.4667 14.2546 31.9576 13.0668 31.0525 12.1617C30.1475 11.2566 28.903 10.7476 27.6586 10.7476C26.697 10.7476 25.7919 11.0304 25 11.5395C24.2081 11.0304 23.303 10.7476 22.3414 10.7476C21.0404 10.7476 19.8525 11.2566 18.9475 12.1617C17.0808 14.0284 17.0808 17.1395 18.9475 19.0061L24.2081 24.2102ZM20.5313 13.689C21.0404 13.1799 21.6626 12.8971 22.398 12.8971C23.0768 12.8971 23.7556 13.1799 24.2647 13.689C24.4909 13.9152 24.7737 14.0284 25.0566 14.0284C25.3394 14.0284 25.6222 13.9152 25.8485 13.689C26.8667 12.6708 28.5636 12.6708 29.5818 13.689C30.0909 14.1981 30.3737 14.8203 30.3737 15.5556C30.3737 16.2344 30.0909 16.9132 29.5818 17.4223L25.0566 21.891L20.5313 17.3657C19.4566 16.3476 19.4566 14.7072 20.5313 13.689Z" fill="#E85F5C"/>
<path d="M36.5959 29.3575H13.404C12.7818 29.3575 12.2727 29.8666 12.2727 30.4889C12.2727 31.1111 12.7818 31.6202 13.404 31.6202H36.5959C37.2182 31.6202 37.7273 31.1111 37.7273 30.4889C37.6707 29.8666 37.2182 29.3575 36.5959 29.3575Z" fill="#E85F5C"/>
<path d="M36.5959 34.9576H13.404C12.7818 34.9576 12.2727 35.4667 12.2727 36.089C12.2727 36.7112 12.7818 37.2203 13.404 37.2203H36.5959C37.2182 37.2203 37.7273 36.7112 37.7273 36.089C37.6707 35.4667 37.2182 34.9576 36.5959 34.9576Z" fill="#E85F5C"/>
<path d="M27.3192 40.6141H13.404C12.7818 40.6141 12.2727 41.1232 12.2727 41.7454C12.2727 42.3677 12.7818 42.8768 13.404 42.8768H27.3192C27.9414 42.8768 28.4505 42.3677 28.4505 41.7454C28.3939 41.0667 27.9414 40.6141 27.3192 40.6141Z" fill="#E85F5C"/>
</svg>
