<svg width="110" height="41" viewBox="0 0 110 41" fill="none" xmlns="http://www.w3.org/2000/svg">
<path d="M27.0066 17.4468C28.1395 16.4233 28.7178 15.1438 28.7178 13.655C28.7178 12.5966 28.4582 11.6428 27.9271 10.8054C27.4786 10.0726 26.8768 9.51433 26.1333 9.11887C26.7115 8.71177 27.1836 8.16511 27.5495 7.4905C27.9861 6.69957 28.1985 5.8505 28.1985 4.96653C28.1985 3.55915 27.6675 2.36114 26.6289 1.41901C25.614 0.476879 24.2804 0 22.699 0H15.0515V18.9821H22.8052C24.4692 18.9821 25.8736 18.4587 27.0066 17.4468ZM17.8367 2.7217H22.6518C23.4307 2.7217 24.068 2.96596 24.599 3.4661C25.1301 3.96624 25.378 4.55943 25.378 5.28057C25.378 6.0017 25.1301 6.59489 24.599 7.09504C24.0798 7.59518 23.4425 7.83943 22.6636 7.83943H17.8367V2.7217ZM17.8367 16.2372V10.5495H22.7816C23.6667 10.5495 24.3866 10.817 24.9649 11.3637C25.5432 11.9104 25.8382 12.5733 25.8382 13.3875C25.8382 14.2133 25.555 14.8763 24.9767 15.423C24.3984 15.9696 23.6785 16.2372 22.7816 16.2372H17.8367Z" fill="#E85F5C"/>
<path d="M34.0048 18.2959C35.1614 18.9589 36.4713 19.2962 37.8875 19.2962C39.5044 19.2962 40.9442 18.8658 42.1951 18.0284C43.4343 17.1909 44.3902 16.0045 45.0275 14.4925L45.1573 14.1901H42.2777L42.2069 14.3064C41.7703 15.0392 41.1802 15.6323 40.4367 16.0394C39.6932 16.4582 38.8435 16.6675 37.8875 16.6675C36.5894 16.6675 35.48 16.2837 34.5949 15.516C33.7688 14.8065 33.2495 13.8644 33.0489 12.7129H45.358L45.3816 12.5152C45.4052 12.236 45.417 11.9569 45.417 11.6894C45.417 10.2704 45.1101 8.96767 44.4965 7.79292C43.8828 6.61817 42.9858 5.67604 41.8293 4.9898C40.6845 4.30356 39.3509 3.95462 37.8875 3.95462C36.4713 3.95462 35.1732 4.29193 34.0048 4.9549C32.8364 5.61788 31.9159 6.54838 31.255 7.72313C30.5941 8.89788 30.2637 10.2122 30.2637 11.6312C30.2637 13.0735 30.5941 14.3878 31.255 15.5509C31.9159 16.7024 32.8364 17.6213 34.0048 18.2959ZM34.7011 7.57193C35.5626 6.86242 36.6366 6.50185 37.8875 6.50185C39.1267 6.50185 40.1889 6.85079 41.0504 7.56029C41.8411 8.21164 42.384 9.08398 42.6436 10.1773H33.1197C33.3675 9.10724 33.8986 8.22327 34.7011 7.57193Z" fill="#E85F5C"/>
<path d="M62.4585 13.6899V6.71121H67.014V4.2454H62.4585V1.22128H61.7858L57.1714 6.01334V6.72284H59.7323V13.7714C59.7323 15.3765 60.2044 16.6559 61.1485 17.5864C61.6206 18.0633 62.1871 18.4122 62.848 18.6448V15.3067C62.5883 14.8763 62.4585 14.3413 62.4585 13.6899Z" fill="#E85F5C"/>
<path d="M48.4265 13.7597C48.4265 15.3648 48.8986 16.6443 49.8309 17.5748C50.7632 18.5053 51.6956 18.9705 53.3124 18.9705L55.8852 16.4582H53.9733C53.0528 16.4582 52.3447 16.2139 51.8608 15.7487C51.3769 15.2834 51.1409 14.5855 51.1409 13.6899V6.71121H55.6963V4.2454H51.1409V1.22128H50.4682L45.8538 6.01334V6.72284H48.4147V13.7597H48.4265Z" fill="#E85F5C"/>
<path d="M71.4752 18.2959C72.6317 18.9589 73.9417 19.2962 75.3579 19.2962C76.9747 19.2962 78.4145 18.8658 79.6655 18.0284C80.9047 17.1909 81.8606 16.0045 82.4979 14.4925L82.6277 14.1901H79.7481L79.6773 14.3064C79.2525 15.0392 78.6506 15.6323 77.9071 16.0394C77.1636 16.4582 76.3138 16.6675 75.3579 16.6675C74.0597 16.6675 72.9504 16.2837 72.0653 15.516C71.2391 14.8065 70.7199 13.8644 70.5192 12.7129H82.8284L82.852 12.5152C82.8756 12.236 82.8874 11.9569 82.8874 11.6894C82.8874 10.2704 82.5805 8.96767 81.9668 7.79292C81.3531 6.61817 80.4562 5.67604 79.3115 4.9898C78.1667 4.30356 76.8331 3.95462 75.3697 3.95462C73.9535 3.95462 72.6435 4.29193 71.487 4.9549C70.3304 5.61788 69.3981 6.54838 68.7372 7.72313C68.0763 8.89788 67.7458 10.2122 67.7458 11.6312C67.7458 13.0735 68.0763 14.3878 68.7372 15.5509C69.3863 16.7024 70.3186 17.6213 71.4752 18.2959ZM72.1715 7.57193C73.033 6.86242 74.1069 6.50185 75.3579 6.50185C76.5971 6.50185 77.6592 6.85079 78.509 7.56029C79.2997 8.21164 79.8425 9.08398 80.1022 10.1773H70.5782C70.8379 9.10724 71.369 8.22327 72.1715 7.57193Z" fill="#E85F5C"/>
<path d="M87.5253 10.9915C87.5253 9.6539 87.8676 8.60709 88.5521 7.85106C89.2366 7.10667 90.2043 6.73447 91.4435 6.73447H93.1547V4.16397H91.6441C89.7322 4.16397 88.2098 4.81532 87.1359 6.09475L86.829 4.24539H84.7874V18.9821H87.5253V10.9915Z" fill="#E85F5C"/>
<path d="M13.529 16.3884H0.5V19.017H6.2238V35.3705H9.03259V19.017H13.529V16.3884Z" fill="#E85F5C"/>
<path d="M48.4028 21.3549C47.258 20.6686 45.9244 20.3197 44.461 20.3197C43.0448 20.3197 41.7348 20.657 40.5783 21.32C39.4217 21.983 38.4894 22.9135 37.8285 24.0882C37.1676 25.263 36.8372 26.5773 36.8372 27.9963C36.8372 29.4386 37.1676 30.7529 37.8285 31.916C38.4894 33.0791 39.4099 34.0096 40.5783 34.6726C41.7348 35.3356 43.0448 35.6729 44.461 35.6729C46.0778 35.6729 47.5176 35.2425 48.7686 34.4051C50.0078 33.5676 50.9637 32.3813 51.601 30.8692L51.7308 30.5668H48.8512L48.7922 30.6831C48.3556 31.4159 47.7655 32.0091 47.022 32.4162C46.2785 32.8349 45.4288 33.0442 44.4728 33.0442C43.1746 33.0442 42.0653 32.6604 41.1802 31.8928C40.3541 31.1833 39.8348 30.2411 39.6341 29.0896H51.9433L51.9669 28.8919C51.9905 28.6128 52.0023 28.3336 52.0023 28.0661C52.0023 26.6471 51.6954 25.3444 51.0817 24.1696C50.4445 22.9949 49.5593 22.0528 48.4028 21.3549ZM39.6814 26.5657C39.9292 25.4956 40.4721 24.6232 41.2628 23.9603C42.1243 23.2508 43.1982 22.8902 44.4492 22.8902C45.6884 22.8902 46.7505 23.2391 47.6003 23.9486C48.391 24.6 48.9338 25.4723 49.1935 26.5657H39.6814Z" fill="#E85F5C"/>
<path d="M58.2219 32.137C57.7498 31.6718 57.502 30.9739 57.502 30.0783V23.0996H62.0574V20.6338H57.502V17.6096H56.8293L52.2148 22.4017V23.1112H54.7758V30.1597C54.7758 31.7648 55.2479 33.0443 56.1802 33.9748C57.1125 34.9053 58.4107 35.3821 60.0275 35.3821H62.1282V32.8582H60.3344C59.4138 32.8465 58.6939 32.6023 58.2219 32.137Z" fill="#E85F5C"/>
<path d="M71.8409 20.3197C70.7787 20.3197 69.7992 20.5291 68.9141 20.9362C68.2178 21.2618 67.6159 21.6806 67.0966 22.2156V15.4113H64.3586V21.8783V35.3705H67.0966V27.3566C67.0966 26.0772 67.4979 24.9838 68.3004 24.1231C69.1029 23.2508 70.0706 22.8204 71.2508 22.8204C72.4546 22.8204 73.3397 23.181 73.977 23.9138C74.6143 24.6465 74.9329 25.7282 74.9329 27.124V35.3705H77.6591V26.5889C77.6591 24.6931 77.128 23.1577 76.0895 22.0295C75.0509 20.8896 73.6229 20.3197 71.8409 20.3197Z" fill="#E85F5C"/>
<path d="M90.936 21.3549C89.7912 20.6686 88.4576 20.3197 86.9942 20.3197C85.578 20.3197 84.268 20.657 83.1115 21.32C81.9549 21.983 81.0226 22.9135 80.3617 24.0882C79.7008 25.263 79.3704 26.5773 79.3704 27.9963C79.3704 29.4386 79.7008 30.7529 80.3617 31.916C81.0226 33.0791 81.9431 34.0096 83.1115 34.6726C84.268 35.3356 85.578 35.6729 86.9942 35.6729C88.6111 35.6729 90.0509 35.2425 91.3018 34.4051C92.541 33.5676 93.4969 32.3813 94.1342 30.8692L94.264 30.5668H91.3726L91.3018 30.6831C90.8652 31.4159 90.2751 32.0091 89.5316 32.4162C88.7881 32.8349 87.9384 33.0442 86.9824 33.0442C85.6842 33.0442 84.5749 32.6604 83.6898 31.8928C82.8637 31.1833 82.3444 30.2411 82.1437 29.0896H94.4529L94.4765 28.8919C94.5001 28.6128 94.5119 28.3336 94.5119 28.0661C94.5119 26.6471 94.205 25.3444 93.5913 24.1696C92.9777 22.9949 92.0807 22.0528 90.936 21.3549ZM82.2146 26.5657C82.4624 25.4956 83.0053 24.6232 83.796 23.9603C84.6575 23.2508 85.7314 22.8902 86.9824 22.8902C88.2216 22.8902 89.2837 23.2391 90.1453 23.9486C90.936 24.6 91.4788 25.4723 91.7385 26.5657H82.2146Z" fill="#E85F5C"/>
<path d="M98.8666 22.4831L98.5598 20.6338H96.5181V35.3705H99.256V27.3799C99.256 26.0423 99.5983 24.9955 100.283 24.2394C100.955 23.495 101.935 23.1228 103.174 23.1228H104.885V20.5523H103.375C101.463 20.5523 99.9523 21.2037 98.8666 22.4831Z" fill="#E85F5C"/>
<path d="M32.7892 22.5296C32.3172 22.076 31.7743 21.6806 31.1724 21.3433C29.9686 20.6919 28.6233 20.3546 27.1481 20.3546C26.4636 20.3546 25.7909 20.4244 25.1654 20.5756C24.8821 20.6454 24.5989 20.7152 24.3511 20.8082C24.1032 20.8896 23.8436 20.9943 23.5958 21.1106C23.4423 21.1804 23.2771 21.2618 23.1237 21.3433C22.451 21.7155 21.8491 22.1691 21.3298 22.7041C21.0112 23.0414 20.7162 23.4136 20.4565 23.8091L20.3385 23.9952C20.3149 24.0184 20.3031 24.0417 20.2913 24.0766C19.6068 25.2397 19.2646 26.5657 19.2646 27.9963C19.2646 29.5665 19.6658 30.9739 20.4447 32.1719L20.4919 32.2417L20.5981 32.2301C21.4833 32.1603 22.2268 31.8811 22.8641 31.3926L22.9467 31.3228L22.8759 31.2414C22.1914 30.3458 21.8373 29.2641 21.8373 27.9963C21.8373 26.7401 22.1914 25.6468 22.8759 24.7512L22.8877 24.7279C23.0411 24.5418 23.1827 24.379 23.3243 24.2394C23.4423 24.1231 23.5722 24.0068 23.702 23.9021C24.3039 23.4136 25.012 23.0763 25.8027 22.9018L25.8735 22.8902C26.3337 22.7972 26.8412 22.7623 27.3369 22.7739C28.7885 22.8204 30.0985 23.402 31.0544 24.4255C31.9867 25.4375 32.4588 26.7634 32.3762 28.1708C32.2346 30.404 30.724 31.7416 29.1307 33.1606C29.0481 33.2304 28.9655 33.3001 28.8947 33.3699C28.8121 33.4397 28.7413 33.5095 28.6587 33.5793C28.4698 33.7538 28.281 33.9282 28.0804 34.1027L28.0214 34.1492C27.5493 34.5679 27.0772 35.0099 26.5816 35.4287L23.643 37.9992L21.8373 36.4057L21.7901 36.4173C20.8224 36.5685 19.8428 36.5801 18.8869 36.4406C18.8279 36.4289 18.7689 36.4173 18.7099 36.4173L18.1316 36.3126L18.7571 36.8709C19.9254 37.9177 21.082 38.9529 22.2504 39.9881L23.1591 40.7906C23.4659 41.0698 23.9734 41.0582 24.2803 40.779L26.9356 38.383C28.0686 37.3711 29.3432 36.2196 30.5587 35.0681C30.7594 34.882 30.96 34.6959 31.1606 34.5098C32.1874 33.556 33.2495 32.579 33.993 31.3461C34.288 30.8576 34.5241 30.3458 34.6775 29.8108C35.2676 27.8916 35.0316 25.798 34.0166 24.0766C33.6744 23.5183 33.2731 22.9833 32.7892 22.5296Z" fill="#E85F5C"/>
<path d="M20.2678 35.5799C21.7076 35.5799 23.0294 35.2542 24.2096 34.6145C24.245 34.5912 24.2922 34.568 24.3276 34.5447L24.4338 34.4749C25.2599 33.9864 25.9562 33.3699 26.5109 32.6255C26.6879 32.3929 26.8413 32.1719 26.983 31.9277C27.0538 31.8114 27.1128 31.695 27.1718 31.5787C27.7147 30.5319 27.9861 29.3572 27.9861 28.0894C27.9861 26.682 27.6439 25.4026 26.983 24.2511C26.9122 24.1231 26.8177 23.9836 26.7233 23.8324L26.6879 23.7858H26.6289C26.5463 23.7858 26.4637 23.7975 26.3811 23.8091C25.5786 23.8789 24.9059 24.1348 24.3158 24.5884L24.2214 24.6582L24.2922 24.7396C25.0593 25.6352 25.4488 26.7402 25.4606 28.0312C25.4606 29.2758 25.1065 30.3575 24.422 31.2414C24.2804 31.4275 24.127 31.602 23.9735 31.7532C23.8437 31.8811 23.7257 31.9858 23.5959 32.0905C23.1002 32.4976 22.5219 32.8 21.8965 32.9861C21.743 33.0326 21.5896 33.0792 21.4362 33.1024C21.0231 33.1838 20.5983 33.2304 20.1734 33.2304C20.1262 33.2304 20.079 33.2304 20.02 33.2304H19.9728C19.0287 33.2071 18.1907 32.9861 17.459 32.5674C17.0814 32.358 16.7273 32.0905 16.4205 31.7881L16.3851 31.7648C15.3938 30.7762 14.8863 29.52 14.8863 28.008C14.8863 26.4959 15.382 25.2397 16.3733 24.2511C17.3174 23.3206 18.5212 22.8204 19.961 22.7855H20.02L20.0554 22.739C20.5747 22.0528 21.2238 21.4596 21.9555 20.9478L22.1797 20.7966L21.9201 20.7501C21.3772 20.6454 20.8343 20.5989 20.3032 20.5989C18.8634 20.5989 17.5417 20.9245 16.3615 21.5643C15.1813 22.204 14.249 23.1112 13.5881 24.2511C12.9272 25.3909 12.585 26.682 12.585 28.0894C12.585 28.9733 12.7148 29.8224 12.9744 30.6017C13.3285 31.6718 13.9421 32.6255 14.7919 33.4514C15.1105 33.7654 15.4764 34.0562 15.8894 34.3237C16.8336 34.9402 17.8957 35.3356 19.0523 35.4985C19.4181 35.5566 19.8312 35.5799 20.2678 35.5799Z" fill="#E85F5C"/>
<path d="M107.328 18.482C107.258 18.4587 107.163 18.4355 107.045 18.4006C106.951 18.3773 106.868 18.354 106.833 18.3424C106.786 18.3191 106.762 18.2959 106.762 18.261C106.762 18.2261 106.786 18.1912 106.821 18.1679C106.856 18.1447 106.915 18.133 106.998 18.133C107.128 18.133 107.269 18.1679 107.411 18.2494L107.541 17.9469C107.47 17.9004 107.387 17.8772 107.293 17.8539C107.199 17.8306 107.104 17.819 107.01 17.819C106.868 17.819 106.75 17.8423 106.656 17.8772C106.561 17.9237 106.49 17.9702 106.431 18.0516C106.384 18.1214 106.361 18.2028 106.361 18.2959C106.361 18.4006 106.384 18.482 106.443 18.5401C106.502 18.5983 106.561 18.6448 106.632 18.6681C106.703 18.6913 106.797 18.7146 106.915 18.7495C107.022 18.7728 107.092 18.796 107.14 18.8077C107.187 18.8309 107.21 18.8542 107.21 18.9007C107.21 18.9821 107.128 19.017 106.974 19.017C106.892 19.017 106.809 19.0054 106.715 18.9821C106.632 18.9589 106.549 18.924 106.49 18.8774L106.349 19.1799C106.42 19.2264 106.514 19.2613 106.62 19.2962C106.738 19.3194 106.845 19.3427 106.963 19.3427C107.104 19.3427 107.222 19.3194 107.317 19.2845C107.411 19.238 107.494 19.1915 107.541 19.1101C107.588 19.0403 107.612 18.9589 107.612 18.8774C107.612 18.7728 107.588 18.6913 107.529 18.6332C107.458 18.5518 107.399 18.5052 107.328 18.482Z" fill="#E85F5C"/>
<path d="M109.5 17.8423H109.158L108.65 18.6797L108.131 17.8423H107.789V19.2962H108.178V18.5401L108.544 19.145H108.733L109.111 18.5169L109.122 19.2962H109.5V17.8423Z" fill="#E85F5C"/>
</svg>
