<svg width="57" height="59" viewBox="0 0 57 59" fill="none" xmlns="http://www.w3.org/2000/svg">
<path d="M32.1273 26.8909C32.7636 26.8909 33.2727 26.3818 33.2727 25.7454V10.3454C33.2727 9.70904 32.7636 9.19995 32.1273 9.19995C31.4909 9.19995 30.9818 9.70904 30.9818 10.3454V25.7454C30.9818 26.3818 31.4909 26.8909 32.1273 26.8909Z" fill="#E85F5C"/>
<path d="M30.9818 56.8636C30.9818 57.4999 31.4909 58.009 32.1273 58.009C32.7636 58.009 33.2727 57.4999 33.2727 56.8636V41.4636C33.2727 40.8272 32.7636 40.3181 32.1273 40.3181C31.4909 40.3181 30.9818 40.8272 30.9818 41.4636V56.8636Z" fill="#E85F5C"/>
<path d="M56.5 33.6363C56.5 32.9999 55.9909 32.4908 55.3545 32.4908H39.9545C39.3182 32.4908 38.8091 32.9999 38.8091 33.6363C38.8091 34.2727 39.3182 34.7818 39.9545 34.7818H55.3545C55.9909 34.7818 56.5 34.2727 56.5 33.6363Z" fill="#E85F5C"/>
<path d="M7.75452 33.6363C7.75452 34.2727 8.26361 34.7818 8.89997 34.7818H24.3C24.9363 34.7818 25.4454 34.2727 25.4454 33.6363C25.4454 32.9999 24.9363 32.4908 24.3 32.4908H8.83634C8.19997 32.4908 7.75452 32.9999 7.75452 33.6363Z" fill="#E85F5C"/>
<path d="M36.8363 28.8636C37.0908 29.1181 37.3454 29.1818 37.6636 29.1818C37.9818 29.1818 38.2363 29.0545 38.4908 28.8636L49.3727 17.9818C49.8181 17.5363 49.8181 16.8363 49.3727 16.3909C48.9272 15.9454 48.2272 15.9454 47.7818 16.3909L36.8999 27.2727C36.3908 27.7181 36.3908 28.4181 36.8363 28.8636Z" fill="#E85F5C"/>
<path d="M14.8818 50.8818C15.1364 51.1363 15.3909 51.1999 15.7091 51.1999C16.0273 51.1999 16.2818 51.0727 16.5364 50.8818L27.3545 40C27.8 39.5545 27.8 38.8545 27.3545 38.409C26.9091 37.9636 26.2091 37.9636 25.7636 38.409L14.8818 49.2272C14.4364 49.6727 14.4364 50.4363 14.8818 50.8818Z" fill="#E85F5C"/>
<path d="M36.8363 38.3454C36.3908 38.7909 36.3908 39.4909 36.8363 39.9364L47.7181 50.8182C47.9727 51.0727 48.2272 51.1364 48.5454 51.1364C48.8636 51.1364 49.1181 51.0091 49.3727 50.8182C49.8181 50.3727 49.8181 49.6727 49.3727 49.2273L38.4908 38.3454C38.0454 37.9 37.2817 37.9 36.8363 38.3454Z" fill="#E85F5C"/>
<path d="M14.8818 16.3909C14.4364 16.8363 14.4364 17.5363 14.8818 17.9818L25.7636 28.8636C26.0182 29.1181 26.2727 29.1818 26.5909 29.1818C26.9091 29.1818 27.1636 29.0545 27.4182 28.8636C27.8636 28.4181 27.8636 27.7181 27.4182 27.2727L16.4727 16.3909C16.0273 15.9454 15.3273 15.9454 14.8818 16.3909Z" fill="#E85F5C"/>
<path d="M38.1091 19.3181C37.5364 19.0635 36.8364 19.3817 36.6454 19.9544L34.2273 25.9363C33.9727 26.509 34.2909 27.209 34.8636 27.3999C34.9909 27.4635 35.1182 27.4635 35.3091 27.4635C35.7545 27.4635 36.2 27.209 36.3909 26.7635L38.8091 20.7817C38.9363 20.209 38.6818 19.5726 38.1091 19.3181Z" fill="#E85F5C"/>
<path d="M27.6091 19.8909C27.3545 19.3182 26.6545 19.0636 26.0818 19.3182C25.5091 19.5727 25.2545 20.2727 25.5091 20.8454L28.1182 26.8272C28.3091 27.2727 28.6909 27.5272 29.1363 27.5272C29.2636 27.5272 29.4545 27.4636 29.5818 27.4636C30.1545 27.2091 30.4091 26.5091 30.1545 25.9363L27.6091 19.8909Z" fill="#E85F5C"/>
<path d="M34.1636 41.3363L36.5817 47.3181C36.7727 47.7636 37.1545 48.0181 37.6636 48.0181C37.7908 48.0181 37.9181 48.0181 38.109 47.9545C38.6817 47.6999 38.9999 47.0636 38.7454 46.4908L36.3272 40.509C36.0727 39.9363 35.4363 39.6181 34.8636 39.8726C34.2272 40.0636 33.9727 40.7636 34.1636 41.3363Z" fill="#E85F5C"/>
<path d="M26.0817 47.8909C26.209 47.9545 26.3999 47.9545 26.5272 47.9545C26.9726 47.9545 27.3545 47.6999 27.5454 47.2545L30.1545 41.2727C30.409 40.6999 30.1545 39.9999 29.5817 39.7454C29.009 39.4909 28.309 39.7454 28.0545 40.3181L25.4454 46.2999C25.2545 46.9999 25.509 47.6363 26.0817 47.8909Z" fill="#E85F5C"/>
<path d="M38.9363 37.8363L44.9181 40.2545C45.0454 40.3181 45.1727 40.3181 45.3636 40.3181C45.809 40.3181 46.2545 40.0636 46.4454 39.6181C46.6999 39.0454 46.3817 38.3454 45.809 38.1545L39.8272 35.7363C39.2545 35.4817 38.5545 35.7999 38.3636 36.3727C38.109 36.8817 38.3636 37.5817 38.9363 37.8363Z" fill="#E85F5C"/>
<path d="M39.8273 31.7272L45.8091 29.1181C46.3818 28.8636 46.6364 28.1636 46.3818 27.5908C46.1273 27.0181 45.4273 26.7636 44.8546 27.0181L38.8727 29.6272C38.3637 29.8817 38.1091 30.5181 38.3637 31.0908C38.5546 31.5363 38.9364 31.7908 39.3818 31.7908C39.5727 31.7908 39.7 31.7908 39.8273 31.7272Z" fill="#E85F5C"/>
<path d="M24.4272 35.6727L18.4454 38.0908C17.8727 38.3454 17.5545 38.9818 17.809 39.5545C18 39.9999 18.3818 40.2545 18.8909 40.2545C19.0181 40.2545 19.1454 40.2545 19.3363 40.1908L25.3181 37.7727C25.8909 37.5181 26.209 36.8818 25.9545 36.309C25.6363 35.7363 25 35.4818 24.4272 35.6727Z" fill="#E85F5C"/>
<path d="M25.3182 29.6272L19.3364 27.0181C18.7637 26.7636 18.0637 27.0181 17.8091 27.5908C17.5546 28.1636 17.8091 28.8636 18.3818 29.1181L24.3637 31.7272C24.4909 31.7908 24.6818 31.7908 24.8091 31.7908C25.2546 31.7908 25.6364 31.5363 25.8273 31.0908C26.1455 30.5181 25.8909 29.8817 25.3182 29.6272Z" fill="#E85F5C"/>
<path d="M43.8364 11.9363C44.0273 12.1272 44.3455 12.2545 44.6637 12.2545C44.7909 12.2545 44.8546 12.2545 44.9818 12.1909L48.5455 11.1727L52.1091 12.1909C52.4909 12.3181 52.9364 12.1909 53.2546 11.9363C53.5728 11.6182 53.6364 11.2363 53.5091 10.7909L52.4909 7.22724L53.5091 3.6636C53.6364 3.28179 53.5091 2.83633 53.2546 2.51815C52.9364 2.19997 52.5546 2.13633 52.1091 2.2636L48.5455 3.28179L44.9818 2.2636C44.6 2.13633 44.1546 2.26361 43.8364 2.51815C43.5818 2.7727 43.4546 3.21815 43.5818 3.6636L44.6 7.22724L43.5818 10.7909C43.4546 11.1727 43.5182 11.6182 43.8364 11.9363ZM46.8909 6.90906L46.3182 4.99997L48.2273 5.5727C48.4182 5.63633 48.6728 5.63633 48.8637 5.5727L50.7728 4.99997L50.2 6.90906C50.1364 7.09997 50.1364 7.35451 50.2 7.54542L50.7728 9.45451L48.8637 8.88179C48.6728 8.81815 48.4182 8.81815 48.2273 8.88179L46.3182 9.45451L46.8909 7.54542C46.9546 7.29088 46.9546 7.09997 46.8909 6.90906Z" fill="#E85F5C"/>
<path d="M0.818147 49.3545C1.00906 49.5455 1.32724 49.6727 1.64542 49.6727C1.77269 49.6727 1.83633 49.6727 1.9636 49.6091L5.52724 48.5909L9.09088 49.6091C9.47269 49.7364 9.91815 49.6091 10.2363 49.3545C10.4909 49.1 10.6181 48.6545 10.4909 48.2091L9.47269 44.6455L10.4909 41.0818C10.6181 40.7 10.4909 40.2545 10.2363 39.9364C9.91815 39.6182 9.53633 39.5545 9.09088 39.6818L5.52724 40.7L1.9636 39.6818C1.58178 39.5545 1.13633 39.6818 0.818147 39.9364C0.563602 40.1909 0.436329 40.6364 0.563602 41.0818L1.58178 44.6455L0.563602 48.2091C0.436329 48.5909 0.563602 49.0364 0.818147 49.3545ZM3.87269 44.3273L3.29997 42.4182L5.20906 42.9909C5.39997 43.0545 5.65451 43.0545 5.84542 42.9909L7.75451 42.4182L7.18178 44.3273C7.11815 44.5182 7.11815 44.7727 7.18178 44.9636L7.75451 46.8727L5.84542 46.3C5.65451 46.2364 5.39997 46.2364 5.20906 46.3L3.29997 46.8727L3.87269 44.9636C3.93633 44.7091 3.93633 44.5182 3.87269 44.3273Z" fill="#E85F5C"/>
<path d="M16.409 10.7272C16.5999 10.9181 16.9181 11.0454 17.2363 11.0454C17.3636 11.0454 17.4272 11.0454 17.5545 10.9818L21.1181 9.96359L24.6817 10.9818C25.0636 11.109 25.509 10.9818 25.8272 10.7272C26.1454 10.409 26.209 10.0272 26.0817 9.58177L25.0636 5.9545L26.0817 2.4545C26.209 2.07268 26.0817 1.62723 25.8272 1.30904C25.509 0.990862 25.1272 0.927226 24.6817 1.0545L21.1181 2.07268L17.5545 1.0545C17.1727 0.927226 16.7272 1.0545 16.409 1.30904C16.1545 1.56359 16.0272 2.00904 16.1545 2.4545L17.1727 6.01814L16.1545 9.58177C16.0272 10.0272 16.0908 10.4727 16.409 10.7272ZM19.4636 5.69995L18.8908 3.79086L20.7999 4.36359C20.9908 4.42723 21.2454 4.42723 21.4363 4.36359L23.3454 3.79086L22.7727 5.69995C22.709 5.89086 22.709 6.14541 22.7727 6.33632L23.3454 8.24541L21.4363 7.67268C21.2454 7.60904 20.9908 7.60904 20.7999 7.67268L18.8908 8.24541L19.4636 6.33632C19.4636 6.14541 19.4636 5.9545 19.4636 5.69995Z" fill="#E85F5C"/>
</svg>
