<svg width="57" height="39" viewBox="0 0 57 39" fill="none" xmlns="http://www.w3.org/2000/svg">
<path d="M1.50305 38.7495H6.38992C6.98588 38.7495 7.52224 38.2727 7.52224 37.6172V27.605H16.5212V37.6172C16.5212 38.2131 16.998 38.7495 17.6536 38.7495H22.7788C23.3748 38.7495 23.9111 38.2727 23.9111 37.6172V24.1485C23.9111 22.301 22.4212 20.8707 20.6334 20.8707H7.52224V3.64746C7.52224 3.0515 7.04548 2.51514 6.38992 2.51514H1.50305C0.907091 2.51514 0.370728 2.9919 0.370728 3.64746V37.6172C0.370728 38.2131 0.847495 38.7495 1.50305 38.7495ZM2.63537 4.77978H5.2576V22.003C5.2576 22.599 5.73436 23.1353 6.38992 23.1353H20.5738C21.1697 23.1353 21.6465 23.6121 21.6465 24.2081V36.5444H18.7859V26.4727C18.7859 25.8768 18.3091 25.3404 17.6536 25.3404H6.33032C5.73436 25.3404 5.198 25.8172 5.198 26.4727V36.4848H2.63537V4.77978Z" fill="#E85F5C"/>
<path d="M55.497 2.51514H50.6101C50.0141 2.51514 49.4778 2.9919 49.4778 3.64746V20.8707H36.3666C34.5192 20.8707 33.0889 22.3606 33.0889 24.1485V37.6172C33.0889 38.2131 33.5656 38.7495 34.2212 38.7495H39.3464C39.9424 38.7495 40.4788 38.2727 40.4788 37.6172V27.605H49.4778V37.6172C49.4778 38.2131 49.9545 38.7495 50.6101 38.7495H55.497C56.0929 38.7495 56.6293 38.2727 56.6293 37.6172V3.64746C56.6293 2.9919 56.1525 2.51514 55.497 2.51514ZM54.3646 36.4848H51.7424V26.4727C51.7424 25.8768 51.2656 25.3404 50.6101 25.3404H39.3464C38.7505 25.3404 38.2141 25.8172 38.2141 26.4727V36.4848H35.3535V24.1485C35.3535 23.5525 35.8303 23.0757 36.4262 23.0757H50.6101C51.206 23.0757 51.7424 22.599 51.7424 21.9434V4.77978H54.3646V36.4848Z" fill="#E85F5C"/>
<path d="M14.3162 18.3081H27.2485V36.4848H25.997C25.401 36.4848 24.8646 36.9616 24.8646 37.6172C24.8646 38.2727 25.3414 38.7495 25.997 38.7495H31.1222C31.7182 38.7495 32.2545 38.2727 32.2545 37.6172C32.2545 36.9616 31.6586 36.4848 31.0626 36.4848H29.5131V18.3081H42.4455C43.0414 18.3081 43.5778 17.8313 43.5778 17.1757V16.0434C43.5778 13.4808 41.4919 11.3949 38.9293 11.3949H31.301C33.0889 9.54746 35.2939 6.86564 35.2939 4.77978C35.2939 2.27675 33.2677 0.250488 30.7646 0.250488C29.9303 0.250488 29.1556 0.488871 28.4404 0.906043C27.7253 0.488871 26.9505 0.250488 26.1162 0.250488C23.6131 0.250488 21.5869 2.27675 21.5869 4.77978C21.5869 6.86564 23.7919 9.54746 25.5798 11.3949H17.8323C15.2697 11.3949 13.1838 13.4808 13.1838 16.0434V17.1757C13.1838 17.7717 13.6606 18.3081 14.3162 18.3081ZM26.1758 2.51513C26.7121 2.51513 27.3081 2.75352 27.7253 3.11109C28.1424 3.52827 28.798 3.52827 29.2152 3.11109C29.6323 2.75352 30.1687 2.51513 30.7646 2.51513C32.0162 2.51513 33.0293 3.52827 33.0293 4.77978C33.0293 6.15049 30.5263 9.01109 28.4404 10.9778C26.3545 9.01109 23.8515 6.15049 23.8515 4.77978C23.9111 3.52827 24.9242 2.51513 26.1758 2.51513ZM17.8323 13.6596H38.8697C40.1808 13.6596 41.2535 14.7323 41.3131 16.0434H15.3889C15.4485 14.7323 16.5212 13.6596 17.8323 13.6596Z" fill="#E85F5C"/>
</svg>
